<svg width="24" height="24" viewBox="0 0 24 24" fill="none" xmlns="http://www.w3.org/2000/svg">
<path d="M2.00002 11H13C14.1045 11 15 10.1046 15 9V2.00002C15 0.895453 14.1045 0 13 0H2.00002C0.895453 0 0 0.895453 0 2.00002V9C0 10.1046 0.895453 11 2.00002 11Z" fill="url(#paint0_linear_2620_9082)"/>
<path d="M23.658 0.882C23.2863 0.330656 22.6649 9.375e-05 22 0H19C17.8955 0 17 0.895453 17 2.00002V9C17 10.1046 17.8954 11 19 11H22C23.1046 11 24 10.1046 24 9V2.00002C24.0007 1.60148 23.8815 1.21195 23.658 0.882Z" fill="url(#paint1_linear_2620_9082)"/>
<path d="M6.11798 13.342C5.78803 13.1185 5.3985 12.9993 4.99997 13H1.99997C0.895453 13 0 13.8955 0 15V22C0 23.1046 0.895453 24 2.00002 24H5.00002C6.10458 24 7.00003 23.1046 7.00003 22V15C6.99989 14.3351 6.66933 13.7137 6.11798 13.342Z" fill="url(#paint2_linear_2620_9082)"/>
<path d="M23.118 13.342C22.788 13.1185 22.3985 12.9993 22 13H11C9.89545 13 9 13.8955 9 15V22C9 23.1046 9.89545 24 11 24H22C23.1046 24 24 23.1046 24 22V15C23.9999 14.3351 23.6693 13.7137 23.118 13.342Z" fill="url(#paint3_linear_2620_9082)"/>
<defs>
<linearGradient id="paint0_linear_2620_9082" x1="9.75002" y1="7.10418" x2="-6.73573" y2="7.71728" gradientUnits="userSpaceOnUse">
<stop stop-color="#7230FF"/>
<stop offset="1" stop-color="#0011ED"/>
</linearGradient>
<linearGradient id="paint1_linear_2620_9082" x1="21.55" y1="7.10418" x2="13.8483" y2="7.23784" gradientUnits="userSpaceOnUse">
<stop stop-color="#7230FF"/>
<stop offset="1" stop-color="#0011ED"/>
</linearGradient>
<linearGradient id="paint2_linear_2620_9082" x1="4.55003" y1="20.1042" x2="-3.15168" y2="20.2378" gradientUnits="userSpaceOnUse">
<stop stop-color="#7230FF"/>
<stop offset="1" stop-color="#0011ED"/>
</linearGradient>
<linearGradient id="paint3_linear_2620_9082" x1="18.75" y1="20.1042" x2="2.26427" y2="20.7173" gradientUnits="userSpaceOnUse">
<stop stop-color="#7230FF"/>
<stop offset="1" stop-color="#0011ED"/>
</linearGradient>
</defs>
</svg>
